<svg id="图层_1" data-name="图层 1" xmlns="http://www.w3.org/2000/svg" viewBox="0 0 20 20"><defs><style>.cls-1{fill:#a2a4a4;fill-rule:evenodd;}</style></defs><title>notadmin_icon</title><path class="cls-1" d="M8.24,19.93A7.25,7.25,0,0,1,2.86,7.82L3,7.71,9.1,1.56a5.21,5.21,0,0,1,7.37,7.37l-4.89,4.89a3.25,3.25,0,0,1-4.49,0,3.18,3.18,0,0,1,0-4.49l4-4a1.13,1.13,0,1,1,1.6,1.6l-4,4a.91.91,0,0,0,0,1.29.93.93,0,0,0,1.29,0l4.89-4.89A3,3,0,1,0,10.7,3.16l-6,6h0a5,5,0,0,0,0,7.06,5.11,5.11,0,0,0,7.06,0l5.35-5.35a1.13,1.13,0,1,1,1.6,1.6l-5.35,5.35a7.23,7.23,0,0,1-5.13,2.12Z"/></svg>