<svg id="图层_1" data-name="图层 1" xmlns="http://www.w3.org/2000/svg" viewBox="0 0 20 20"><defs><style>.cls-1{fill:#a3a5a5;}</style></defs><title>notadmin_icon</title><path class="cls-1" d="M14,6.74A3.58,3.58,0,0,0,14.88,3L13.22,4.6a1.58,1.58,0,0,1-2.12.26l-1-.94a1.44,1.44,0,0,1,.27-2L12.09.23a3.93,3.93,0,0,0-4,.79,3.59,3.59,0,0,0-.82,3.87L.41,11.49a1.32,1.32,0,0,0,0,1.92l.71.68a1.45,1.45,0,0,0,2,0L9.95,7.51A3.94,3.94,0,0,0,14,6.74Z"/><path class="cls-1" d="M19.89,7l-.34-.32,0,0-.34-.32a.3.3,0,0,0-.35-.07C18.09,6.81,16,8.17,16,8.17l.23.85-2.34,2.25-.19-.18L13.54,11a.82.82,0,0,0-1-.21,37.08,37.08,0,0,0-6.78,6.54.75.75,0,0,0,.22,1l.14.14L7.38,19.6l.14.14a.82.82,0,0,0,1,.21,37.07,37.07,0,0,0,6.78-6.54.75.75,0,0,0-.22-1l-.14-.14-.19-.18L17.1,9.87l.88.23s1.42-2,2-2.75A.27.27,0,0,0,19.89,7Z"/></svg>