<svg id="图层_1" data-name="图层 1" xmlns="http://www.w3.org/2000/svg" viewBox="0 0 40 40"><defs><style>.cls-1{fill:#c61a1a;}</style></defs><title>notadmin_icon</title><path class="cls-1" d="M20.05,0a20,20,0,1,0,20,20A20,20,0,0,0,20.05,0Zm0,38a18,18,0,1,1,18-18A18,18,0,0,1,20.05,38Z"/><path class="cls-1" d="M30,10.1a1.5,1.5,0,0,0-2.12,0l-7.78,7.78L12.27,10.1a1.5,1.5,0,1,0-2.12,2.12L17.93,20l-7.78,7.78a1.5,1.5,0,1,0,2.12,2.12l7.78-7.78,7.78,7.78A1.5,1.5,0,0,0,30,27.78L22.17,20,30,12.22A1.5,1.5,0,0,0,30,10.1Z"/></svg>