<svg id="图层_1" data-name="图层 1" xmlns="http://www.w3.org/2000/svg" viewBox="0 0 92 92"><defs><style>.cls-1{fill:#fff;}</style></defs><title>notado</title><path class="cls-1" d="M66.38,59.09q-4,4.18-7.29,7a36.73,36.73,0,0,1-5.38,4A7.85,7.85,0,0,1,50,71.27a3.67,3.67,0,0,1-2.9-1.2A4.64,4.64,0,0,1,46,66.88q0-4.1,3.18-10.51a137.2,137.2,0,0,1,9.84-16q3-4.32,3-5.59,0-.71-.78-.71-2.48,0-10.16,8A221.34,221.34,0,0,0,32.91,64.54Q31.91,66,31.07,66a3.67,3.67,0,0,1-2.19-1.35q-1.34-1.34-1.34-2T29.44,59q5.87-8.77,10.65-17.66t4.78-10.58a1.15,1.15,0,0,0-.5-1,1.62,1.62,0,0,0-.92-.35q-1.42,0-6.72,2.3a93.05,93.05,0,0,0-10.55,5.41q-3,1.91-4,1.91-.78,0-.78-1.35,0-2.26,2.34-5.56A29.18,29.18,0,0,1,29.76,26q3.72-2.87,4.49-2.87c.19,0,.28,0,.28.07a.2.2,0,0,1-.07.14,17,17,0,0,0-3.75,4q7.15-3.61,10.62-5.1a15.49,15.49,0,0,1,5.87-1.49q4.53,0,4.53,3.61a7.51,7.51,0,0,1-.53,2.51A43.17,43.17,0,0,1,49,31.46q-1.66,3.15-5.77,10.23L34.39,56.9Q48.9,38.85,57,31.46t10.76-7.4q.64,0,1.73,2a7.27,7.27,0,0,1,1.1,3.33,9.46,9.46,0,0,1-1,4.35A46.6,46.6,0,0,1,66,39.28a173.49,173.49,0,0,0-9.87,14.54q-2.58,4.56-2.58,7.4A2.1,2.1,0,0,0,56,63.55q3.26,0,10.33-7.15Z"/></svg>