<svg id="图层_1" data-name="图层 1" xmlns="http://www.w3.org/2000/svg" viewBox="0 0 20 20"><defs><style>.cls-1{fill:#9d9696;fill-rule:evenodd;}</style></defs><title>notadmin_icon</title><path class="cls-1" d="M18.49,16.19A4.36,4.36,0,0,0,20,13c0-2.15-1.72-4-4.11-4.61-.14-3.44-3.64-6.19-7.94-6.19S0,5,0,8.58a5.74,5.74,0,0,0,2,4.24c.39.35-.07,1.32-.62,2.12a11,11,0,0,1,2.82-.43,4.83,4.83,0,0,1,1.13.12A9.67,9.67,0,0,0,7.95,15h.53A6.23,6.23,0,0,0,14,17.83a7.33,7.33,0,0,0,2-.27,3.67,3.67,0,0,1,.86-.09,8.35,8.35,0,0,1,2.14.33c-.42-.61-.77-1.34-.47-1.61h0M7.95,13.81a8.49,8.49,0,0,1-2.31-.31h0a6,6,0,0,0-1.41-.15c-.3,0-.6,0-.89,0A1.64,1.64,0,0,0,2.78,12a5.15,5.15,0,0,1-1.19-1.57,4.15,4.15,0,0,1-.42-1.8A4.67,4.67,0,0,1,3.06,5,7.07,7.07,0,0,1,5.23,3.78a8.58,8.58,0,0,1,5.43,0A7.07,7.07,0,0,1,12.83,5,4.79,4.79,0,0,1,14.7,8.14h0q-.36,0-.72,0c-3.33,0-6,2.18-6,4.86a4,4,0,0,0,.09.84H7.95m9.76,1.51a1.5,1.5,0,0,0-.48,1h-.39a4.82,4.82,0,0,0-1.14.12h0a6.16,6.16,0,0,1-1.68.23,6.08,6.08,0,0,1-2-.32,5.08,5.08,0,0,1-1.56-.85A3.27,3.27,0,0,1,9.12,13a3.27,3.27,0,0,1,1.33-2.53A5.08,5.08,0,0,1,12,9.6a6.23,6.23,0,0,1,3.94,0,5.09,5.09,0,0,1,1.56.85A3.27,3.27,0,0,1,18.83,13a2.87,2.87,0,0,1-.29,1.24,3.63,3.63,0,0,1-.84,1.11h0m-13.24-8A1.12,1.12,0,0,1,5.41,6.1a1.12,1.12,0,0,1,.95,1.23,1.12,1.12,0,0,1-.95,1.23,1.12,1.12,0,0,1-.95-1.22v0h0m4.94,0a1.12,1.12,0,0,1,.95-1.22,1.12,1.12,0,0,1,.95,1.23,1.12,1.12,0,0,1-.95,1.23A1.12,1.12,0,0,1,9.4,7.35v0h0m2.19,4.74a.86.86,0,0,1,.73-.94.86.86,0,0,1,.73,1,.86.86,0,0,1-.73,1,.86.86,0,0,1-.73-.94v0h0m3.53,0a.86.86,0,0,1,.73-.94.86.86,0,0,1,.73,1,.86.86,0,0,1-.73,1,.86.86,0,0,1-.73-.94v0h0m0,0Z"/></svg>