<svg id="图层_1" data-name="图层 1" xmlns="http://www.w3.org/2000/svg" viewBox="0 0 20 20"><defs><style>.cls-1{fill:#a3a5a5;}</style></defs><title>notadmin_icon</title><path class="cls-1" d="M2,17V3a.81.81,0,0,1,.76-.86H9.34l.41.46V8.76h5.41l.4.45V10h1.76V8.38L10.06.19H2.81A2.71,2.71,0,0,0,.29,3V17a2.71,2.71,0,0,0,2.52,2.86H8.56v-2H2.81A.81.81,0,0,1,2,17Zm9-12.79,2.7,3H11.1Z"/><path class="cls-1" d="M18.44,13.86h-.51a4.08,4.08,0,0,0-.37-.9l.36-.36a.56.56,0,0,0,0-.79L17.14,11a.56.56,0,0,0-.79,0l-.36.36a4.08,4.08,0,0,0-.9-.37v-.51a.56.56,0,0,0-.56-.56H13.42a.56.56,0,0,0-.56.56V11a4.08,4.08,0,0,0-.9.37L11.6,11a.56.56,0,0,0-.79,0l-.79.79a.56.56,0,0,0,0,.79l.36.36a4.08,4.08,0,0,0-.37.9H9.51a.56.56,0,0,0-.56.56v1.11a.56.56,0,0,0,.56.56H10a4.09,4.09,0,0,0,.37.9l-.36.36a.56.56,0,0,0,0,.79l.79.79a.56.56,0,0,0,.79,0l.36-.36a4.09,4.09,0,0,0,.9.37v.51a.56.56,0,0,0,.56.56h1.11a.56.56,0,0,0,.56-.56v-.51a4.08,4.08,0,0,0,.9-.37l.36.36a.56.56,0,0,0,.79,0l.79-.79a.56.56,0,0,0,0-.79L17.56,17a4.08,4.08,0,0,0,.37-.9h.51a.56.56,0,0,0,.56-.56V14.42A.56.56,0,0,0,18.44,13.86ZM14,18.11A3.13,3.13,0,1,1,17.11,15,3.14,3.14,0,0,1,14,18.11Z"/></svg>