<svg id="图层_1" data-name="图层 1" xmlns="http://www.w3.org/2000/svg" viewBox="0 0 20 20"><defs><style>.cls-1{fill:#9d9696;fill-rule:evenodd;}</style></defs><title>notadmin_icon</title><path class="cls-1" d="M10,19.58c-1.59,0-6.43,0-6.43-3.16,0-1.47,2.09-2.44,4.25-2.81C6.22,12.32,6,10.14,6,8.33a3.72,3.72,0,0,1,4-4.08h.13a3.72,3.72,0,0,1,4,4.08c0,1.8-.21,4-1.77,5.27,2.16.36,4.24,1.33,4.24,2.81,0,2.1-2.25,3.16-6.69,3.16h0M10,5.27c-1.85,0-2.75.92-2.75,2.81s-.2,3.74,1.2,4.63a.78.78,0,0,1,.36.66V14a.78.78,0,0,1-.7.78c-2.39.25-3.51,1.14-3.51,2,0,1.21,1.79,1.83,5.32,1.83s5.6-.68,5.6-1.83c0-.75-1.13-1.7-3.51-2a.78.78,0,0,1-.7-.78v-.63a.78.78,0,0,1,.36-.66c1.41-.89,1.2-2.85,1.2-4.63S12,5.27,10.16,5.27H10m9.46,10.58a.73.73,0,0,1-.73-.73c0-.57-.84-1.88-2.76-2.08a.73.73,0,0,1-.65-.72V10.69a.73.73,0,0,1,.34-.61,4.58,4.58,0,0,0,2-3.95c0-2.66-2.64-2.83-3.34-2.83-.4,0-.73-.12-.73-.52a.73.73,0,0,1,.73-.73c2,0,4.44,1.07,4.44,4.08a5.41,5.41,0,0,1-2.3,4.68l.11,1.37c2.19.46,3.44,1.58,3.44,2.9,0,.4-.11.78-.52.78h0m-19,0c-.4,0-.52-.38-.52-.78,0-1.32,1.25-2.43,3.44-2.9l.11-1.37a5.41,5.41,0,0,1-2.3-4.68c0-3,2.39-4.08,4.44-4.08a.73.73,0,0,1,.73.73c0,.4-.33.52-.73.52-.7,0-3.34.16-3.34,2.83a4.58,4.58,0,0,0,2,3.95.73.73,0,0,1,.34.61v1.63a.73.73,0,0,1-.65.72c-1.92.2-2.76,1.51-2.76,2.08a.73.73,0,0,1-.73.73h0m.15,0Z"/></svg>