<svg id="图层_1" data-name="图层 1" xmlns="http://www.w3.org/2000/svg" viewBox="0 0 20 20"><defs><style>.cls-1{fill:#9d9696;}</style></defs><title>notadmin_icon</title><path class="cls-1" d="M16.84.21H3.2A2.87,2.87,0,0,0,.33,3.06V17A2.87,2.87,0,0,0,3.2,19.83h8.25l8.25-8.19V3.06A2.87,2.87,0,0,0,16.84.21Zm-4.2,15.64v-3H15.7Zm5.07-5-.45.45H11.09v6.11l-.46.46H3.2A.86.86,0,0,1,2.33,17V3.06a.86.86,0,0,1,.87-.86H16.84a.86.86,0,0,1,.87.86Z"/><path class="cls-1" d="M14.81,5H5.75a1,1,0,0,0,0,2h9.06a1,1,0,0,0,0-2Z"/><path class="cls-1" d="M14.81,8.39H5.75a1,1,0,0,0,0,2h9.06a1,1,0,0,0,0-2Z"/><path class="cls-1" d="M6.75,11.78h-1a1,1,0,0,0,0,2h1a1,1,0,0,0,0-2Z"/></svg>