<svg id="图层_1" data-name="图层 1" xmlns="http://www.w3.org/2000/svg" viewBox="0 0 20 20"><defs><style>.cls-1{fill:#a3a5a5;}</style></defs><title>notadmin_icon</title><path class="cls-1" d="M12.53,20H2.18a2.2,2.2,0,0,1-1.56-.64A2.14,2.14,0,0,1,0,17.8V15.37l0-.1a1.93,1.93,0,0,1,.68-1.12,1.25,1.25,0,0,1,.77-.26,1.88,1.88,0,0,1,1,.31l.13.07h.08l.11.06a1.62,1.62,0,0,0,.74.18A1.86,1.86,0,0,0,4.79,14a1.88,1.88,0,0,0,.4-.59,1.76,1.76,0,0,0,.14-.72,1.85,1.85,0,0,0-1.87-1.87,1.79,1.79,0,0,0-.73.16l0,0h0l-.1,0L2,11.28a1.68,1.68,0,0,1-.86.15,1.27,1.27,0,0,1-.92-.58A2,2,0,0,1,0,9.8V7.55A2.18,2.18,0,0,1,.61,6a2.18,2.18,0,0,1,1.57-.65H4.07a3.91,3.91,0,0,1-.18-1.2,4,4,0,0,1,.33-1.63A4.15,4.15,0,0,1,6.39.33,4,4,0,0,1,9.6.33a4.15,4.15,0,0,1,2.17,2.17,4,4,0,0,1,.33,1.63,4.1,4.1,0,0,1-.17,1.2h.59A2.14,2.14,0,0,1,14.09,6a2.2,2.2,0,0,1,.64,1.56V8.92A3.85,3.85,0,0,1,16,8.71,4,4,0,0,1,17.56,9a4.08,4.08,0,0,1,2.16,2.16,4,4,0,0,1,0,3.15,4.1,4.1,0,0,1-2.16,2.15,4,4,0,0,1-1.57.32,3.85,3.85,0,0,1-1.26-.21v1.2a2.2,2.2,0,0,1-2.2,2.2ZM1.63,15.69v2.1a.46.46,0,0,0,.16.37.52.52,0,0,0,.39.16H12.53a.52.52,0,0,0,.53-.53V13.36l1.38,1.17a2.73,2.73,0,0,0,.73.44,2.13,2.13,0,0,0,.82.16,2.26,2.26,0,0,0,.91-.18,2.4,2.4,0,0,0,.77-.52,2.43,2.43,0,0,0,.52-.76,2.36,2.36,0,0,0,0-1.82,2.4,2.4,0,0,0-1.28-1.28,2.26,2.26,0,0,0-.91-.18,2.13,2.13,0,0,0-.82.16,2.73,2.73,0,0,0-.73.44l-1.38,1.17V7.55a.52.52,0,0,0-.16-.39A.46.46,0,0,0,12.53,7H8.72L9.9,5.63a2.2,2.2,0,0,0,.53-1.49,2.33,2.33,0,0,0-.19-1A2.48,2.48,0,0,0,8.93,1.87a2.37,2.37,0,0,0-1.87,0A2.48,2.48,0,0,0,5.75,3.18a2.33,2.33,0,0,0-.19,1,2.17,2.17,0,0,0,.14.8,2.7,2.7,0,0,0,.41.71L7.2,7h-5a.5.5,0,0,0-.38.16.5.5,0,0,0-.16.38V9.62l.17-.08.28-.12a3.47,3.47,0,0,1,1.37-.29A3.53,3.53,0,0,1,7,12.68a3.45,3.45,0,0,1-.28,1.38,3.54,3.54,0,0,1-1.88,1.86,3.52,3.52,0,0,1-1.39.28,3.28,3.28,0,0,1-1.4-.32A2.16,2.16,0,0,1,1.63,15.69Z"/></svg>