<svg id="图层_1" data-name="图层 1" xmlns="http://www.w3.org/2000/svg" viewBox="0 0 20 20"><defs><style>.cls-1{fill:#9d9696;}</style></defs><title>notadmin_icon</title><path class="cls-1" d="M2.07,11.86,10,3.95l7.91,7.91a1,1,0,1,0,1.41-1.41L17.79,8.93V3.33a1,1,0,0,0-2,0V6.93l-5.1-5.1a1,1,0,0,0-1.43,0L.66,10.44a1,1,0,0,0,1.41,1.41Z"/><path class="cls-1" d="M18.43,17H16V15.18a6,6,0,0,0-12,0V17H1.53a1,1,0,1,0,0,2H5a1,1,0,0,0,1-1v0H6V15.18a4,4,0,1,1,8,0V18h0s0,0,0,0a1,1,0,0,0,1,1h3.45a1,1,0,0,0,0-2Z"/></svg>