<svg id="图层_1" data-name="图层 1" xmlns="http://www.w3.org/2000/svg" width="140" height="31.4" viewBox="0 0 140 31.4"><defs><style>.cls-1{fill:#fff;fill-rule:evenodd;}</style></defs><title>notado</title><polygon class="cls-1" points="0 31.4 0 0.11 2.9 0.11 20.8 26.79 20.8 0 23.38 0 23.38 31.28 20.63 31.28 2.67 4.72 2.67 31.4 0 31.4"/><path class="cls-1" d="M137.43,0V12.54a11.06,11.06,0,0,0-9-4.35,11.18,11.18,0,0,0-8.2,3.4,11.18,11.18,0,0,0-3.4,8.2,11.18,11.18,0,0,0,3.4,8.2,11.59,11.59,0,0,0,16.4,0,11.18,11.18,0,0,0,3.4-8.2V0Zm-2.64,26.19a9,9,0,0,1-15.43-6.4,9,9,0,1,1,18.07,0A8.76,8.76,0,0,1,134.79,26.19Z"/><path class="cls-1" d="M112,0V12.54a11.06,11.06,0,0,0-9-4.35,11.18,11.18,0,0,0-8.2,3.4,11.18,11.18,0,0,0-3.4,8.2,11.18,11.18,0,0,0,3.4,8.2,11.59,11.59,0,0,0,16.4,0,11.18,11.18,0,0,0,3.4-8.2V0Zm-2.64,26.19a9,9,0,0,1-15.43-6.4,9,9,0,1,1,18.07,0A8.76,8.76,0,0,1,109.33,26.19Z"/><path class="cls-1" d="M89.07,19.79a11.14,11.14,0,0,0-3.38-8.18,11.59,11.59,0,0,0-16.4,0,11.1,11.1,0,0,0-3.4,8.18,11.18,11.18,0,0,0,3.4,8.2,11.59,11.59,0,0,0,17.24-.92V31.4h2.55V19.79Zm-5.21,6.4a9,9,0,0,1-12.78,0,8.76,8.76,0,0,1-2.64-6.4,9,9,0,0,1,9-9,8.65,8.65,0,0,1,6.38,2.66,8.7,8.7,0,0,1,2.66,6.38A8.72,8.72,0,0,1,83.87,26.19Z"/><path class="cls-1" d="M55.05,10.76v9a9,9,0,0,0,9,9V31.4a11.18,11.18,0,0,1-8.2-3.4,11.18,11.18,0,0,1-3.4-8.2V0h2.57V8.19h9v2.57h-9Z"/><path class="cls-1" d="M46.83,11.59a11.59,11.59,0,0,0-16.4,0,11.18,11.18,0,0,0-3.4,8.2,11.18,11.18,0,0,0,3.4,8.2,11.59,11.59,0,0,0,16.4,0,11.18,11.18,0,0,0,3.4-8.2A11.18,11.18,0,0,0,46.83,11.59ZM45,26.17a9,9,0,0,1-12.8,0,8.69,8.69,0,0,1-2.64-6.38,8.76,8.76,0,0,1,2.64-6.4,9,9,0,0,1,12.8,0,8.76,8.76,0,0,1,2.64,6.4A8.68,8.68,0,0,1,45,26.17Z"/></svg>