<svg id="图层_1" data-name="图层 1" xmlns="http://www.w3.org/2000/svg" viewBox="0 0 20 20"><defs><style>.cls-1{fill:#a2a4a4;fill-rule:evenodd;}</style></defs><title>notadmin_icon</title><path class="cls-1" d="M15.3,9.36l-4.67,0s0-3.47,0-4.63A4.66,4.66,0,1,1,15.3,9.36ZM4.7,20a4.66,4.66,0,0,1,0-9.32l4.67,0s0,3.47,0,4.63A4.66,4.66,0,0,1,4.7,20ZM0,4.7a4.66,4.66,0,0,1,9.32,0c0,1.16,0,4.63,0,4.63l-4.67,0A4.66,4.66,0,0,1,0,4.7ZM20,15.3a4.66,4.66,0,0,1-9.32,0c0-1.16,0-4.63,0-4.63l4.67,0A4.66,4.66,0,0,1,20,15.3Zm-8.07,0c0,.27,0,.24,0,0a3.48,3.48,0,0,0,3.48,3.21,3.22,3.22,0,0,0,3.22-3.22,3.43,3.43,0,0,0-3.22-3.46H11.9s0,2.75,0,3.45c0,0,0,0,0,0Z"/></svg>